<?xml version="1.0" encoding="UTF-8" standalone="no"?>
<svg height="70" width="160" xmlns="http://www.w3.org/2000/svg">
  <g>
      <path
         style="fill:#610000"
         d="m 45.175781,57.30473 q 0,2.0654 0.615235,3.2959 0.615234,1.2304 1.625976,1.8896 1.054688,0.6592 2.373047,0.8789 1.362305,0.2197 2.856445,0.2197 l 0.351563,0 0,4.7901 -17.446289,0 -2.504883,-7.0313 -0.834961,0 q -1.010742,1.8457 -2.329102,3.2959 -1.274414,1.4502 -2.988281,2.5049 -1.669922,1.0107 -3.779297,1.5381 -2.109375,0.5713 -4.746093,0.5713 -4.394532,0 -7.822266,-1.4502 -3.4277344,-1.4942 -5.8007813,-4.5264 -2.3291015,-3.0762 -3.5595703,-7.7783 Q 0,50.80083 0,44.34083 q 0,-6.5039 1.1865234,-11.25 1.2304688,-4.79 3.5595703,-7.8662 2.3291016,-3.1201 5.7128903,-4.6143 3.383789,-1.5381 7.734375,-1.5381 2.548828,0 4.570313,0.5713 2.06543,0.5274 3.691406,1.4942 1.669922,0.9228 2.944336,2.2412 1.274414,1.3183 2.197266,2.9004 l 0.615234,0 q -0.175781,-2.5049 -0.351562,-4.7022 -0.04395,-0.9228 -0.131836,-1.8896 -0.04395,-0.9668 -0.131836,-1.8018 -0.04395,-0.8789 -0.08789,-1.53807 0,-0.65918 0,-1.05469 l 0,-4.96582 q 0,-1.8457 -0.615234,-2.94434 -0.571289,-1.14258 -1.582032,-1.71386 -0.966796,-0.57129 -2.285156,-0.74707 -1.318359,-0.17579 -2.8125,-0.17579 l -0.703125,0 0,-4.74609 21.665039,0 0,57.30473 z m -22.939453,5.2294 q 2.680664,0 4.438477,-1.0986 1.801757,-1.1426 2.856445,-3.4277 1.098633,-2.2852 1.538086,-5.7129 0.439453,-3.4717 0.439453,-8.1299 0,-4.4385 -0.439453,-7.8662 -0.439453,-3.4717 -1.538086,-5.8008 -1.054688,-2.373 -2.856445,-3.5596 -1.757813,-1.2304 -4.438477,-1.2304 -2.241211,0 -3.867187,1.2304 -1.582032,1.1866 -2.592774,3.5596 -0.966797,2.3731 -1.450195,5.8447 -0.439453,3.4278 -0.439453,7.9102 0,9.1846 1.889648,13.7549 1.933594,4.5263 6.459961,4.5263 z" />
      <path
         style="fill:#610000"
         d="m 80.947266,24.82913 q -3.779297,0 -6.020508,3.7353 -2.197266,3.7354 -2.416992,10.9424 l 15.55664,0 q 0,-3.4277 -0.395508,-6.1523 -0.395507,-2.7246 -1.274414,-4.6143 -0.834961,-1.8896 -2.197265,-2.9004 -1.31836,-1.0107 -3.251953,-1.0107 z m 0.834961,44.4287 q -5.712891,0 -10.107422,-1.6699 -4.350586,-1.67 -7.294922,-4.834 -2.944336,-3.1641 -4.438477,-7.7344 -1.49414,-4.6143 -1.49414,-10.5029 0,-6.3282 1.49414,-11.1182 1.494141,-4.79 4.350586,-7.998 2.856445,-3.208 6.987305,-4.7901 4.174805,-1.626 9.492187,-1.626 4.87793,0 8.789063,1.4063 3.911133,1.3623 6.635742,4.0869 2.724609,2.7246 4.174801,6.7676 1.4502,4.043 1.4502,9.4043 l 0,4.6142 -29.487306,0 q 0.131836,4.5264 0.966797,7.7784 0.878906,3.2519 2.373047,5.3613 1.538086,2.1094 3.691406,3.1201 2.197266,1.0107 5.009766,1.0107 2.329102,0 4.306641,-0.5273 1.977539,-0.5713 3.55957,-1.5381 1.625976,-1.0107 2.8125,-2.3291 1.230469,-1.3623 2.021484,-2.9004 2.416992,1.3184 2.416992,4.3946 0,1.9336 -1.054687,3.6914 -1.054688,1.7138 -3.251953,3.0322 -2.197266,1.3184 -5.53711,2.1094 -3.295898,0.791 -7.86621,0.791 z" />
      <path
         style="fill:#610000"
         d="m 160.09277,24.91703 -1.80175,0 q -0.92286,0 -1.66993,0.2197 -0.70312,0.2197 -1.40625,0.9228 -0.65918,0.6592 -1.31836,1.9776 -0.65918,1.2744 -1.45019,3.4277 l -13.05176,36.9141 -11.86523,0 -14.76563,-39.1553 q -0.4834,-1.2744 -1.14258,-2.1094 -0.61523,-0.8349 -1.49414,-1.3183 -0.83496,-0.4834 -1.97754,-0.6592 -1.09863,-0.2197 -2.59277,-0.2197 l 0,-4.7901 27.90527,0 0,4.7901 -3.77929,0 q -1.36231,0 -2.19727,0.747 -0.79101,0.7032 -0.79101,2.1094 0,1.0986 0.26367,2.1533 0.30762,1.0547 0.57129,1.8018 l 6.0205,17.0508 q 1.09864,2.8564 1.88965,5.7568 0.83496,2.9004 1.27442,5.1855 0.21972,-1.0546 0.61523,-2.4609 0.39551,-1.4062 0.79102,-2.7246 0.3955,-1.3623 0.70312,-2.4609 0.35156,-1.0987 0.4834,-1.5381 l 6.1084,-18.0615 q 0.43945,-1.2305 0.70312,-2.461 0.30762,-1.2744 0.30762,-2.5049 0,-1.4941 -1.01074,-2.0214 -0.9668,-0.5713 -2.50488,-0.5713 l -2.59278,0 0,-4.7901 19.77539,0 0,4.7901 z" />
  </g>
</svg>
