<?xml version="1.0" encoding="UTF-8"?>
<svg width="289" height="68" xmlns="http://www.w3.org/2000/svg">
  <path fill="#701717" d="m16.512451,52.443359q-7.811279,0 -12.161865,-4.779053q-4.350586,-4.812012 -4.350586,-13.776855q0,-9.09668 4.383545,-14.007568q4.416503,-4.943848 12.557373,-4.943848q2.636719,0 5.20752,0.560303q2.60376,0.527344 4.284668,1.384277l-1.812744,4.943848q-4.581299,-1.713867 -7.811279,-1.713867q-5.471192,0 -8.074952,3.460693q-2.603759,3.427734 -2.603759,10.250244q0,6.558838 2.603759,10.05249q2.60376,3.460693 7.712403,3.460693q4.779053,0 9.393309,-2.109375l0,5.273438q-3.757324,1.94458 -9.327391,1.94458z"/>
  <path fill="#701717" d="m61.88501,33.623779q0,8.865967 -4.482418,13.842773q-4.482433,4.976807 -12.392582,4.976807q-4.910889,0 -8.701172,-2.27417q-3.790283,-2.307129 -5.833742,-6.591797q-2.043457,-4.284668 -2.043457,-9.953613q0,-8.833008 4.416506,-13.743896q4.416504,-4.943848 12.392578,-4.943848q7.646488,0 12.128906,5.042725q4.515381,5.009766 4.515381,13.64502zm-27.322998,0q0,6.82251 2.669678,10.38208q2.702637,3.526611 7.943115,3.526611q5.174557,0 7.877193,-3.526611q2.702641,-3.55957 2.702641,-10.38208q0,-6.82251 -2.7356,-10.250244q-2.702641,-3.460693 -7.943111,-3.460693q-10.513916,0 -10.513916,13.710938z"/>
  <path fill="#701717" d="m84.186279,14.936035q2.405998,0 4.251709,0.395508l-0.725098,5.471191q-2.010498,-0.461426 -3.922119,-0.461426q-2.867432,0 -5.339363,1.582031q-2.438957,1.582031 -3.823242,4.383545q-1.38427,2.768555 -1.38427,6.16333l0,19.313965l-5.932617,0l0,-36.188966l4.87793,0l0.65918,6.624757l0.263672,0q2.076416,-3.592529 4.910889,-5.438232q2.834473,-1.845703 6.16333,-1.845703z"/>
  <path fill="#701717" d="m107.993156,52.443359q-8.140869,0 -12.788078,-4.910889q-4.614258,-4.943848 -4.614258,-13.579102q0,-8.701172 4.317627,-13.842773q4.317619,-5.174561 11.66748,-5.174561q6.82251,0 10.876457,4.416504q4.053963,4.383545 4.053963,11.898193l0,3.592529l-24.785164,0q0.164795,6.16333 3.131104,9.360352q2.966309,3.197021 8.404541,3.197021q2.900398,0 5.50415,-0.494385q2.60376,-0.527344 6.09742,-2.010498l0,5.20752q-2.999275,1.2854 -5.635994,1.812744q-2.636719,0.527344 -6.229248,0.527344zm-1.483147,-32.662354q-4.251717,0 -6.723633,2.735596q-2.471931,2.735596 -2.93335,7.613527l18.424072,0q-0.065903,-5.075686 -2.340096,-7.712404q-2.27417,-2.636719 -6.426994,-2.636719z"/>
  <path fill="#1c1c4b" d="m141.522949,52.443359q-7.053223,0 -10.942383,-4.87793q-3.889168,-4.87793 -3.889168,-13.809814q0,-8.865967 3.889168,-13.842775q3.922119,-4.976806 11.008301,-4.976806q7.283936,0 11.206055,5.339355l0.428467,0q-0.098892,-0.659178 -0.263672,-2.636719q-0.164795,-2.010498 -0.164795,-2.702636l0,-14.436035l5.932617,0l0,51.284181l-4.779053,0l-0.889893,-4.844971l-0.263672,0q-3.790283,5.50415 -11.271973,5.50415zm0.955811,-4.910889q5.405273,0 7.877197,-2.93335q2.504883,-2.966309 2.504883,-9.689941l0,-1.087646q0,-7.547607 -2.537842,-10.744629q-2.504883,-3.22998 -7.910156,-3.22998q-4.581299,0 -7.086182,3.658447q-2.504883,3.625488 -2.504883,10.38208q0,6.723633 2.471924,10.184326q2.504883,3.460693 7.185059,3.460693z"/>
  <path fill="#1c1c4b" d="m169.833252,15.595214l0,23.302003q0,4.383545 1.94458,6.525879q1.977539,2.109375 6.097412,2.109375q5.570068,0 8.10791,-3.098145q2.537842,-3.098145 2.537842,-9.986572l0,-18.85254l5.965576,0l0,36.188966l-4.87793,0l-0.856934,-4.779053l-0.296631,0q-1.61499,2.60376 -4.581299,4.020996q-2.966309,1.417236 -6.888428,1.417236q-6.525879,0 -9.854736,-3.131104q-3.295898,-3.131104 -3.295898,-10.019531l0,-23.697511l5.998535,0z"/>
  <path fill="#1c1c4b" d="m246.065918,51.78418l0,-23.302002q0,-8.569336 -7.349854,-8.569336q-5.042725,0 -7.415771,2.93335q-2.373062,2.933352 -2.373062,8.964844l0,19.973145l-5.899643,0l0,-23.302002q0,-4.284668 -1.812744,-6.427002q-1.779785,-2.142334 -5.603027,-2.142334q-5.009766,0 -7.349854,3.065186q-2.307129,3.065187 -2.307129,10.05249l0,18.753662l-5.932617,0l0,-36.188964l4.779053,0l0.889893,4.943849l0.32959,0q1.549072,-2.636719 4.350586,-4.119873q2.834473,-1.483154 6.328125,-1.483154q8.503418,0 11.074219,6.064453l0.32959,0q1.746826,-2.900391 4.746078,-4.482422q3.032242,-1.582031 6.855484,-1.582031q6.130356,0 9.162598,3.164063q3.065186,3.164063 3.065186,10.118408l0,23.565672l-5.866699,0z"/>
  <path fill="#1c1c4b" d="m274.310303,52.443359q-7.283936,0 -11.206055,-5.240479l-0.395508,0l0.131836,1.351318q0.263672,2.570801 0.263672,4.581299l0,14.864502l-5.932617,0l0,-52.404785l4.87793,0l0.791016,4.943848l0.263672,0q2.109375,-2.966307 4.87793,-4.284668q2.768555,-1.318358 6.394043,-1.318358q7.053223,0 10.942383,4.910888q3.922119,4.87793 3.922119,13.776855q0,8.865967 -3.922119,13.842773q-3.922119,4.976807 -11.008301,4.976807zm-0.98877,-32.530518q-5.372314,0 -7.77832,3.032227q-2.373047,3.032228 -2.438965,9.525146l0,1.153564q0,7.349854 2.438965,10.645752q2.438965,3.262939 7.910156,3.262939q4.54834,0 7.086182,-3.691406q2.570801,-3.691406 2.570801,-10.283203q0,-6.624756 -2.570801,-10.118408q-2.537842,-3.526611 -7.218018,-3.526611z"/>
</svg>
